<svg width="36" height="36" viewBox="0 0 36 36" fill="none" xmlns="http://www.w3.org/2000/svg">
<path d="M28.7389 5.33453C24.954 1.54971 18.7906 1.54971 15.0098 5.33453L4.52323 15.8131C4.45493 15.8814 4.41877 15.9738 4.41877 16.0702C4.41877 16.1667 4.45493 16.2591 4.52323 16.3274L6.00582 17.81C6.07359 17.8774 6.16533 17.9153 6.26096 17.9153C6.35659 17.9153 6.44832 17.8774 6.51609 17.81L17.0027 7.3314C18.3045 6.02962 20.0362 5.31444 21.8764 5.31444C23.7165 5.31444 25.4482 6.02962 26.746 7.3314C28.0478 8.63319 28.763 10.3649 28.763 12.201C28.763 14.0412 28.0478 15.7689 26.746 17.0707L16.0585 27.7542L14.3268 29.4859C12.7076 31.1051 10.0759 31.1051 8.45672 29.4859C7.67323 28.7024 7.24332 27.6618 7.24332 26.5528C7.24332 25.4439 7.67323 24.4033 8.45672 23.6198L19.0598 13.0207C19.329 12.7555 19.6826 12.6068 20.0603 12.6068H20.0643C20.442 12.6068 20.7915 12.7555 21.0567 13.0207C21.3259 13.2899 21.4706 13.6435 21.4706 14.0211C21.4706 14.3948 21.3219 14.7484 21.0567 15.0135L12.3902 23.672C12.3219 23.7403 12.2857 23.8327 12.2857 23.9292C12.2857 24.0256 12.3219 24.118 12.3902 24.1863L13.8728 25.6689C13.9406 25.7364 14.0323 25.7743 14.1279 25.7743C14.2236 25.7743 14.3153 25.7364 14.3831 25.6689L23.0456 17.0064C23.8451 16.2068 24.2831 15.1461 24.2831 14.0171C24.2831 12.8881 23.8411 11.8234 23.0456 11.0278C21.3942 9.37649 18.7103 9.38051 17.0589 11.0278L16.0304 12.0604L6.45984 21.6269C5.81028 22.2727 5.29538 23.041 4.94501 23.8872C4.59464 24.7335 4.41577 25.6409 4.41877 26.5568C4.41877 28.4171 5.146 30.1649 6.45984 31.4787C7.82189 32.8368 9.60582 33.5158 11.3898 33.5158C13.1737 33.5158 14.9576 32.8368 16.3156 31.4787L28.7389 19.0635C30.567 17.2314 31.5795 14.7926 31.5795 12.201C31.5835 9.60551 30.571 7.16667 28.7389 5.33453Z" fill="black" fill-opacity="0.85"/>
</svg>
