<svg width="20" height="21" viewBox="0 0 20 21" fill="none" xmlns="http://www.w3.org/2000/svg">
<path d="M15.6629 9.93801L5.60045 2.07863C5.57415 2.05793 5.54256 2.04507 5.50928 2.04152C5.476 2.03797 5.4424 2.04387 5.41233 2.05856C5.38226 2.07324 5.35694 2.09611 5.33929 2.12454C5.32163 2.15296 5.31234 2.18579 5.3125 2.21926V3.9447C5.3125 4.05408 5.36384 4.15899 5.44866 4.22595L13.4844 10.5005L5.44866 16.7751C5.36161 16.842 5.3125 16.9469 5.3125 17.0563V18.7818C5.3125 18.9313 5.48438 19.0139 5.60045 18.9224L15.6629 11.063C15.7485 10.9963 15.8177 10.911 15.8652 10.8135C15.9128 10.716 15.9376 10.609 15.9376 10.5005C15.9376 10.392 15.9128 10.285 15.8652 10.1875C15.8177 10.0901 15.7485 10.0047 15.6629 9.93801Z" fill="black" fill-opacity="0.85"/>
</svg>
